<?xml version="1.0" encoding="UTF-8"?>
<svg width="226.01mm" height="226.01mm" version="1.1" viewBox="0 0 226.01 226.01" xmlns="http://www.w3.org/2000/svg" xmlns:cc="http://creativecommons.org/ns#" xmlns:dc="http://purl.org/dc/elements/1.1/" xmlns:rdf="http://www.w3.org/1999/02/22-rdf-syntax-ns#">
 <metadata>
  <rdf:RDF>
   <cc:Work rdf:about="">
    <dc:format>image/svg+xml</dc:format>
    <dc:type rdf:resource="http://purl.org/dc/dcmitype/StillImage"/>
    <dc:title/>
   </cc:Work>
  </rdf:RDF>
 </metadata>
 <g transform="translate(1.4848 .75841)">
  <g transform="translate(-.53454)">
   <path d="m-0.70027-0.50841h225.51v225.51h-225.51z" fill="#c6dff2" opacity=".998" stroke="#fff" stroke-linecap="round" stroke-width=".5" style="paint-order:fill markers stroke"/>
   <path transform="matrix(.99978 -.02107 .053062 .99859 0 0)" d="m58.165 28.197h67.749c4.853 0 8.76 3.9069 8.76 8.76v6.2573c0 4.853-3.9069 8.76-8.76 8.76h-67.749c-4.853 0-8.76-3.9069-8.76-8.76v-6.2573c0-4.853 3.9069-8.76 8.76-8.76z" fill="#b9f9cd" opacity=".998" stroke="#fff" stroke-linecap="round" stroke-width=".099836" style="paint-order:fill markers stroke"/>
   <path d="m61.557 226.09c1.4762-1.1215 1.4618-1.6102-0.19196-6.545-0.98298-2.9331-2.7719-8.5055-3.9754-12.383s-2.3361-6.9021-2.5169-6.7213c-0.1808 0.18078-1.6276 4.8419-3.2152 10.358-1.5875 5.5162-3.2496 10.393-3.6936 10.837-0.44395 0.44393-0.81903-2.1355-0.83352-5.7321-0.0145-3.5966-0.62662-13.084-1.3603-21.084-1.3339-14.544-1.3339-14.544-2.4433-9.065-1.2701 6.2737-5.1332 17.324-6.559 18.761-0.63678 0.64203-0.70722 0.31444-0.20851-0.96963 1.0912-2.8095 2.3072-26.396 2.3791-46.145 0.062-17.056 0.062-17.056-2.8293-22.301-1.5902-2.885-2.9009-6.1181-2.9125-7.1847-0.0168-1.5384-0.42135-1.2829-1.9568 1.2355-2.4634 4.0403-2.7454 17.551-0.45787 21.937 1.9831 3.8026 1.1478 4.2702-1.3533 0.75771-7.8992-11.093-7.6439-40.443 0.56665-65.14 2.5665-7.7197 3.2673-11.224 2.8987-14.495-0.54078-4.7988 0.53582-8.6457 2.9281-10.463 0.87033-0.66111 1.3541-1.4303 1.0751-1.7094-0.27905-0.27905-2.1616 0.80728-4.1835 2.414-4.2626 3.3875-6.9025 3.7241-7.77 0.99083-0.81074-2.5544-0.28606-3.2586 5.7506-7.7181 4.2652-3.1509 5.2296-4.4264 5.7346-7.5846 0.70661-4.4189 7.5106-12.825 10.381-12.825 1.0866 0 3.4001-2.1304 5.7123-5.2603 4.1078-5.5606 4.3027-5.6721 12.659-7.2464 17.05-3.2123 55.979-4.1964 65.973-1.6679 2.9119 0.73668 6.925 1.6281 8.9182 1.9809 2.6348 0.4664 4.4654 1.6887 6.7072 4.4783 1.6958 2.1103 4.592 4.727 6.4359 5.8149 15.797 9.3207 29.825 30.918 34.594 53.262 2.4032 11.259 2.617 13.705 3.3916 38.804 0.76346 24.736 0.76346 24.736 4.2716 34.622 4.0402 11.386 8.9471 22.037 10.898 23.656 0.74001 0.61415 1.3455 1.5205 1.3455 2.0141 0 1.3115-8.2369-4.5698-10.59-7.5617-2.0108-2.5563-2.0108-2.5563-1.431 2.761 0.60858 5.5811-1.0345 19.049-2.5032 20.517-0.49714 0.49714-0.84568-2.1999-0.82914-6.416 0.0343-8.7571-2.9587-21.434-7.2167-30.565-3.0475-6.5354-3.0475-6.5354-3.7175-1.2024-1.1658 9.2799-0.8795 24.483 0.59185 31.428 0.78096 3.6864 2.7444 9.5329 4.3633 12.992s2.8038 6.4294 2.6333 6.6c-1.0238 1.0238-10.293-8.8584-12.272-13.084-1.2786-2.73-2.4995-4.7888-2.7131-4.5753s0.51492 2.2578 1.6189 4.5426c2.6246 5.4323 2.5477 5.6404-0.87307 2.3631-2.5745-2.4665-2.95-2.5777-3.5372-1.0476-0.3613 0.94153-0.37787 6.9013-0.0368 13.244 0.39247 7.2991 0.27164 11.532-0.32921 11.532-1.238 0-5.5629-6.8729-6.3843-10.146-0.35198-1.4024-0.83441-2.3554-1.072-2.1177-0.37329 0.37328 0.55645 4.7554 2.2406 10.56 0.8317 2.8668-2.126 0.95761-5.0476-3.2582-1.9001-2.7419-2.8872-3.4887-3.4364-2.6-0.49381 0.79898 0.32851 2.3808 2.2895 4.404 3.0601 3.1572 3.0601 3.1572-48.221 3.1572-41.229 0-50.968-0.23757-49.686-1.212zm6.823-3.2746c4.1741-2.1223 4.1281-2.036 2.2152-4.1498-0.92625-1.0235-2.7313-4.4077-4.0112-7.5206-2.3271-5.6597-2.3271-5.6597-2.3501 3.7942-0.0127 5.1996 0.21682 9.4539 0.50995 9.4539s1.9294-0.70999 3.6361-1.5778zm7.9046-4.7897c1.2145-1.8536 1.3577-2.818 0.56098-3.7781-0.58842-0.70899-1.9423-2.9706-3.0087-5.0256-1.9388-3.7366-1.9388-3.7366-1.501-0.34287 0.7008 5.4323 1.8056 11.636 2.0723 11.636 0.13509 0 0.9795-1.12 1.8765-2.489zm77.235-8.2224c-0.89099-2.2314-0.95359-2.1636-1.0112 1.0958-0.0338 1.911 0.26578 3.8068 0.66575 4.213 1.1459 1.1637 1.396-2.6781 0.34549-5.3088zm-122.34-92.958c0.0926-7.1349-0.5116-5.9302-1.1752 2.3433-0.32903 4.1022-0.21774 6.0202 0.28132 4.8482 0.45414-1.0666 0.85639-4.3027 0.89387-7.1914zm52.913-74.235c7.9994-0.27842 22.027-0.54368 31.173-0.58947 12.965-0.06491 17.077-0.3976 18.665-1.5101 3.0088-2.1075 2.4906-4.6183-1.599-7.7468-3.6361-2.7816-3.6361-2.7816-34.664-2.727-21.363 0.0376-32.296 0.42251-35.098 1.2356-4.295 1.2464-9.9898 6.9529-9.9898 10.01 0 2.1829 2.0448 2.6233 10.181 2.1927 3.7331-0.19755 13.332-0.58698 21.332-0.8654z" fill="#fff" stroke-width=".96963"/>
  </g>
 </g>
</svg>
