<?xml version="1.0" encoding="UTF-8" standalone="no"?>

<!-- Created with Inkscape (http://www.inkscape.org/) -->

<svg
   width="4.2333493mm"
   height="3.3046539mm"
   viewBox="0 0 4.2333493 3.3046538"
   version="1.1"
   id="svg5"
   xmlns="http://www.w3.org/2000/svg"
   xmlns:svg="http://www.w3.org/2000/svg">
  <defs
     id="defs2" />
  <g
     id="layer1"
     style="opacity:1"
     transform="translate(-108.67591,-130.27073)">
    <path
       style="fill:#3e3748;stroke:none;stroke-width:0.00455025px;stroke-linecap:butt;stroke-linejoin:miter;stroke-opacity:1"
       d="m 109.89267,132.66443 c -0.22793,0.0209 -0.36551,-0.0309 -0.51153,-0.0759 -0.47447,-0.41793 -0.38053,-0.46346 -0.57079,-0.69519 0.0726,-0.20358 0.0936,-0.41635 0.32039,-0.59252 0.21687,-0.19003 0.41716,-0.39314 0.7265,-0.51022 0.25912,-0.10663 0.46356,-0.1209 0.67919,-0.15407 0.34619,-0.0138 0.69951,-0.0175 1.19839,0.18467 l 0.93387,0.62771 -0.0262,-0.5158 c -0.23405,-0.25003 -0.3499,-0.33125 -0.43508,-0.36868 -0.27744,-0.14959 -0.44238,-0.15952 -0.65438,-0.22787 -0.42683,-0.10695 -0.6622,-0.0521 -0.95445,-0.0493 -1.12498,0.15597 -1.28989,0.54651 -1.53659,0.7419 -0.23179,0.31374 -0.33771,0.62055 -0.37018,0.90488 -0.0756,0.32747 0.13418,0.46573 0.2968,0.63529 l 0.73822,0.49583 c 0.12947,0.0739 0.28378,0.10296 0.43333,0.14059 l -0.0599,-0.69034 z"
       id="path10226" />
    <path
       style="opacity:1;fill:#2d1650;stroke:#000000;stroke-width:0.00455025px;stroke-linecap:butt;stroke-linejoin:miter;stroke-opacity:1"
       d="m 109.8512,132.66158 -0.12081,-0.32481 c -0.0216,-0.1071 -0.0504,-0.21541 0.091,-0.29477 0.75969,-0.31486 1.491,-0.73389 2.19199,-1.26422 l 0.11197,0.0467 0.51851,1.08867 -2.07504,1.34791 0.12725,0.27885 -0.0784,0.0326 -0.14265,-0.24995 -0.32963,-0.0822 z"
       id="path5556" />
    <path
       style="opacity:1;fill:#6f7c91;stroke:none;stroke-width:0.00455025px;stroke-linecap:butt;stroke-linejoin:miter;stroke-opacity:1"
       d="m 109.91861,132.35764 0.0596,-0.21083 c 0.78701,-0.37972 1.55667,-0.79028 2.25708,-1.324 l 0.24926,0.16352 c 0.13715,0.14277 0.27264,0.29628 0.39381,0.54196 0.0187,0.0823 0.0241,0.24773 0.0309,0.40384 l -0.0535,0.24868 -0.12372,0.19137 -1.33558,0.95518 c -0.0854,0.0281 -0.1645,0.0493 -0.21369,0.0369 l -0.46299,-0.0625 -0.13262,-0.0417 c -0.29631,0.15073 -0.42033,-0.10042 -0.43782,-0.14125 z"
       id="path98" />
    <path
       style="opacity:1;fill:#b3b3b3;stroke:none;stroke-width:0.00488782px;stroke-linecap:butt;stroke-linejoin:miter;stroke-opacity:1"
       d="m 110.8513,132.8047 c 0.0219,-0.16595 0.0354,-0.16293 0.0796,-0.21097 l 1.76841,-1.18284 c 0.0431,0.0201 0.10932,0.0795 0.1168,0.11695 0.0194,0.0769 -0.0343,0.13032 -0.0805,0.18613 -0.46952,0.3672 -0.94675,0.65263 -1.42017,0.97852 -0.0959,0.0392 -0.43833,0.14233 -0.46411,0.11221 z"
       id="path7052" />
    <path
       style="fill:#999999;stroke:#000000;stroke-width:0.00455025px;stroke-linecap:butt;stroke-linejoin:miter;stroke-opacity:1"
       d="m 110.20197,132.54347 -0.10389,0.12337 c -0.0945,0.11223 0.0329,0.69245 0.35174,0.64187 l 0.13738,-0.0486 c 0.0638,-0.35614 -0.0626,-0.607 -0.38523,-0.71663 z"
       id="path6280" />
    <path
       style="opacity:1;fill:#5fd35f;stroke:none;stroke-width:0.00455025px;stroke-linecap:butt;stroke-linejoin:miter;stroke-opacity:1"
       d="m 110.88335,132.75598 c -0.007,-0.0722 0.0354,-0.15107 0.0885,-0.23147 l 1.67076,-1.07871 c 0.0402,0.0187 0.076,0.0223 0.11597,0.0717 l -0.12164,0.20165 c -0.43787,0.34124 -0.88293,0.60649 -1.32443,0.90934 -0.087,0.0355 -0.19168,0.0731 -0.42914,0.12747 z"
       id="path1657" />
    <path
       style="opacity:1;fill:#b3b3b3;stroke:none;stroke-width:0.00465541px;stroke-linecap:butt;stroke-linejoin:miter;stroke-opacity:1"
       d="m 110.89952,133.0421 0.19522,0.26397 c 0.0425,0.0148 0.0798,0.0383 0.19572,0.0337 0.44191,-0.24766 0.91609,-0.60575 1.447,-1.00639 0.041,-0.0639 0.0816,-0.12803 0.1009,-0.20148 0.016,-0.0824 0.009,-0.15105 0.0113,-0.22489 l -0.11362,0.11326 -0.36956,0.33806 c 0,0 -0.86918,0.55005 -0.87916,0.55766 -0.0166,0.0127 -0.22587,0.11324 -0.22469,0.11316 l -0.19027,0.024 z"
       id="path7624" />
    <path
       style="opacity:1;fill:#5fd35f;stroke:none;stroke-width:0.00455025px;stroke-linecap:butt;stroke-linejoin:miter;stroke-opacity:1"
       d="m 110.94805,133.0765 0.13382,0.19342 c 0.0412,0.0146 0.0356,0.0466 0.14783,0.0421 l 1.44234,-1.00205 c 0.0397,-0.063 0.079,-0.12636 0.0977,-0.19885 l 0.0452,-0.17245 -0.0954,0.0903 -0.40661,0.30564 c 0,0 -0.84138,0.54284 -0.85104,0.55035 -0.0161,0.0125 -0.21865,0.11176 -0.2175,0.11168 l -0.14356,0.0602 z"
       id="path3959" />
    <ellipse
       style="opacity:1;fill:#666666;stroke:#000000;stroke-width:0.0104323"
       id="ellipse6091"
       ry="0.23944041"
       rx="0.25568408"
       cy="30.795732"
       cx="150.33228"
       transform="matrix(0.73344636,0.67974734,0,1,0,0)" />
    <ellipse
       style="opacity:1;fill:#b3b3b3;stroke:#000000;stroke-width:0.00523713"
       id="path5907"
       ry="0.12813416"
       rx="0.12040934"
       cy="35.966248"
       cx="146.86613"
       transform="matrix(0.75069824,0.66064526,0,1,0,0)" />
  </g>
</svg>

